<svg width="16" height="16" viewBox="0 0 16 16" fill="none" xmlns="http://www.w3.org/2000/svg">
<path fill-rule="evenodd" clip-rule="evenodd" d="M5.59099 11.4697L8 13.8787L10.409 11.4697L8 9.06068L5.59099 11.4697ZM4.53033 10.409L6.93934 8.00002L4.53033 5.59101L2.12132 8.00002L4.53033 10.409ZM5.59099 4.53035L8 6.93936L10.409 4.53035L8 2.12134L5.59099 4.53035ZM11.4697 5.59101L9.06066 8.00002L11.4697 10.409L13.8787 8.00002L11.4697 5.59101Z" fill="black" fill-opacity="0.15"/>
<path fill-rule="evenodd" clip-rule="evenodd" d="M8 16L16 8L8 0L0 8L8 16ZM5.59099 11.4697L8 13.8787L10.409 11.4697L8 9.06066L5.59099 11.4697ZM4.53033 10.409L6.93934 8L4.53033 5.59099L2.12132 8L4.53033 10.409ZM5.59099 4.53033L8 6.93934L10.409 4.53033L8 2.12132L5.59099 4.53033ZM11.4697 5.59099L9.06066 8L11.4697 10.409L13.8787 8L11.4697 5.59099Z" fill="black"/>
</svg>
