<svg width="16" height="16" viewBox="0 0 16 16" fill="none" xmlns="http://www.w3.org/2000/svg">
<path d="M7.25 1.54285V8.00004H8.75V1.54285C11.9866 1.9147 14.5 4.66385 14.5 8.00004C14.5 11.5899 11.5899 14.5 8 14.5C4.41015 14.5 1.5 11.5899 1.5 8.00004C1.5 4.66385 4.01342 1.9147 7.25 1.54285Z" fill="black" fill-opacity="0.15"/>
<path d="M7.25 0V8H8.75V0H7.25Z" fill="black"/>
<path d="M3.40381 12.5962C0.865398 10.0578 0.865398 5.94221 3.40381 3.40381L2.34315 2.34315C-0.781049 5.46734 -0.781049 10.5327 2.34315 13.6569C5.46734 16.781 10.5327 16.781 13.6569 13.6569C16.781 10.5327 16.781 5.46734 13.6569 2.34315L12.5962 3.40381C15.1346 5.94221 15.1346 10.0578 12.5962 12.5962C10.0578 15.1346 5.94221 15.1346 3.40381 12.5962Z" fill="black"/>
</svg>
