<svg width="256" height="256" viewBox="0 0 256 256" fill="none" xmlns="http://www.w3.org/2000/svg">
<g clip-path="url(#clip0_3368_3517)">
<path fill-rule="evenodd" clip-rule="evenodd" d="M160 128H136V104V72.0099L84.6478 57.7454C80.4781 56.5872 76.1706 56 71.8429 56C45.42 56 24 77.42 24 103.843V144H0V103.843C0 64.1651 32.1651 32 71.8429 32C78.3414 32 84.8098 32.8818 91.0712 34.621L136 47.1011V24V0H160L207.029 47.0294L224 64L207.029 80.9706L160 128ZM190.059 64L160 33.9411V94.0589L190.059 64ZM96 256H120V232V208.899L164.928 221.379C171.19 223.118 177.659 224 184.157 224C223.835 224 256 191.835 256 152.157V112H232V152.157C232 178.581 210.581 200 184.157 200C179.829 200 175.522 199.413 171.352 198.254L120 183.99V152V128H96L48.9706 175.029L32 192L48.9706 208.971L96 256ZM65.9411 192L96 161.941V222.059L65.9411 192Z" fill="#040708"/>
</g>
<defs>
<clipPath id="clip0_3368_3517">
<rect width="256" height="256" fill="white"/>
</clipPath>
</defs>
</svg>
