<svg width="256" height="256" viewBox="0 0 256 256" fill="none" xmlns="http://www.w3.org/2000/svg">
<path fill-rule="evenodd" clip-rule="evenodd" d="M24 48H48L80 16H176L208 48H232H256V72V200V224H232H24H0V200V72V48H24ZM64.9706 64.9706L89.9411 40H166.059L191.029 64.9706L198.059 72H208H232V200H24V72H48H57.9411L64.9706 64.9706ZM152 128C152 141.255 141.255 152 128 152C114.745 152 104 141.255 104 128C104 114.745 114.745 104 128 104C141.255 104 152 114.745 152 128ZM176 128C176 154.51 154.51 176 128 176C101.49 176 80 154.51 80 128C80 101.49 101.49 80 128 80C154.51 80 176 101.49 176 128Z" fill="#040708"/>
</svg>
