<svg width="16" height="16" viewBox="0 0 16 16" fill="none" xmlns="http://www.w3.org/2000/svg">
<path fill-rule="evenodd" clip-rule="evenodd" d="M1.5 3H3L5 1H11L13 3H14.5H16V4.5V12.5V14H14.5H1.5H0V12.5V4.5V3H1.5ZM4.06066 4.06066L5.62132 2.5H10.3787L11.9393 4.06066L12.3787 4.5H13H14.5V12.5H1.5V4.5H3H3.62132L4.06066 4.06066ZM9.5 8C9.5 8.82843 8.82843 9.5 8 9.5C7.17157 9.5 6.5 8.82843 6.5 8C6.5 7.17157 7.17157 6.5 8 6.5C8.82843 6.5 9.5 7.17157 9.5 8ZM11 8C11 9.65685 9.65685 11 8 11C6.34315 11 5 9.65685 5 8C5 6.34315 6.34315 5 8 5C9.65685 5 11 6.34315 11 8Z" fill="#040708"/>
</svg>
