<svg width="256" height="256" viewBox="0 0 256 256" fill="none" xmlns="http://www.w3.org/2000/svg">
<g clip-path="url(#clip0_3368_3523)">
<path fill-rule="evenodd" clip-rule="evenodd" d="M232 128C232 185.438 185.438 232 128 232C70.5624 232 24 185.438 24 128C24 70.5624 70.5624 24 128 24C185.438 24 232 70.5624 232 128ZM256 128C256 198.693 198.693 256 128 256C57.3075 256 0 198.693 0 128C0 57.3075 57.3075 0 128 0C198.693 0 256 57.3075 256 128ZM88 176H112V80H88V176ZM168 80H144V176H168V80Z" fill="#040708"/>
</g>
<defs>
<clipPath id="clip0_3368_3523">
<rect width="256" height="256" fill="white"/>
</clipPath>
</defs>
</svg>
