<svg width="16" height="16" viewBox="0 0 16 16" fill="none" xmlns="http://www.w3.org/2000/svg">
<path fill-rule="evenodd" clip-rule="evenodd" d="M8 1.5C4.96243 1.5 2.5 3.96243 2.5 7V8H5H6.5V9.5V13.5V15H5H4C2.34315 15 1 13.6569 1 12V9.5V8V7C1 3.13401 4.13401 0 8 0C11.866 0 15 3.13401 15 7V8V9.5V12C15 13.6569 13.6569 15 12 15H11H9.5V13.5V9.5V8H11H13.5V7C13.5 3.96243 11.0376 1.5 8 1.5ZM5 9.5H2.5V12C2.5 12.8284 3.17157 13.5 4 13.5H5V9.5ZM11 9.5H13.5V12C13.5 12.8284 12.8284 13.5 12 13.5H11V9.5Z" fill="#040708"/>
</svg>
