<svg width="16" height="16" viewBox="0 0 16 16" fill="none" xmlns="http://www.w3.org/2000/svg">
<path fill-rule="evenodd" clip-rule="evenodd" d="M10 7V3.5C10 2.39543 9.10457 1.5 8 1.5C6.89543 1.5 6 2.39543 6 3.5V7C6 8.10457 6.89543 9 8 9C9.10457 9 10 8.10457 10 7ZM8 0C6.067 0 4.5 1.567 4.5 3.5V7C4.5 8.933 6.067 10.5 8 10.5C9.933 10.5 11.5 8.933 11.5 7V3.5C11.5 1.567 9.933 0 8 0ZM1 7.25V6H2.5V7.25C2.5 10.1495 4.85051 12.5 7.75 12.5H8.25C11.1495 12.5 13.5 10.1495 13.5 7.25V6H15V7.25C15 10.8097 12.2444 13.7259 8.75 13.9818V16H7.25V13.9818C3.75556 13.7259 1 10.8097 1 7.25Z" fill="#040708"/>
</svg>
