<svg width="256" height="256" viewBox="0 0 256 256" fill="none" xmlns="http://www.w3.org/2000/svg">
<path fill-rule="evenodd" clip-rule="evenodd" d="M248 256H216L180.624 212.461C168.259 218.707 154.528 222.645 140 223.709V256H116V223.709C60.089 219.614 16 172.955 16 116V96H40V116C40 162.392 77.608 200 124 200H132C143.724 200 154.887 197.598 165.024 193.259L8 0H40L248 256ZM160 96.9464V56C160 38.3269 145.673 24 128 24C119.996 24 112.677 26.939 107.066 31.7968L91.9272 13.1644C101.671 4.95006 114.258 0 128 0C158.928 0 184 25.072 184 56V112C184 116.37 183.499 120.622 182.554 124.704L160 96.9464ZM222.894 174.354L206.71 154.436C212.648 142.918 216 129.851 216 116V96H240V116C240 137.496 233.72 157.526 222.894 174.354Z" fill="#040708"/>
</svg>
