<svg width="16" height="16" viewBox="0 0 16 16" fill="none" xmlns="http://www.w3.org/2000/svg">
<path fill-rule="evenodd" clip-rule="evenodd" d="M15.5 16H13.5L11.289 13.2788C10.5162 13.6692 9.65803 13.9153 8.75 13.9818V16H7.25V13.9818C3.75556 13.7259 1 10.8097 1 7.25V6H2.5V7.25C2.5 10.1495 4.8505 12.5 7.75 12.5H8.25C8.98274 12.5 9.68043 12.3499 10.314 12.0787L0.5 0H2.5L15.5 16ZM10 6.05915V3.5C10 2.39543 9.10457 1.5 8 1.5C7.49972 1.5 7.04233 1.68369 6.69162 1.9873L5.74545 0.822775C6.35446 0.309379 7.1411 0 8 0C9.933 0 11.5 1.567 11.5 3.5V7C11.5 7.2731 11.4687 7.53889 11.4096 7.79398L10 6.05915ZM13.9309 10.8971L12.9194 9.65225C13.2905 8.9324 13.5 8.11567 13.5 7.25V6H15V7.25C15 8.59353 14.6075 9.84538 13.9309 10.8971Z" fill="#040708"/>
</svg>
