<svg width="16" height="16" viewBox="0 0 16 16" fill="none" xmlns="http://www.w3.org/2000/svg">
<path fill-rule="evenodd" clip-rule="evenodd" d="M5.25 1H4.5V1.75V9.40135C4.05874 9.14609 3.54643 9 3 9C1.34315 9 0 10.3431 0 12C0 13.6569 1.34315 15 3 15C4.65685 15 6 13.6569 6 12V6H13.5V9.40135C13.0587 9.14609 12.5464 9 12 9C10.3431 9 9 10.3431 9 12C9 13.6569 10.3431 15 12 15C13.6569 15 15 13.6569 15 12V1.75V1H14.25H5.25ZM13.5 4.5V2.5H6V4.5H13.5ZM12 10.5C12.8284 10.5 13.5 11.1716 13.5 12C13.5 12.8284 12.8284 13.5 12 13.5C11.1716 13.5 10.5 12.8284 10.5 12C10.5 11.1716 11.1716 10.5 12 10.5ZM4.5 12C4.5 11.1716 3.82843 10.5 3 10.5C2.17157 10.5 1.5 11.1716 1.5 12C1.5 12.8284 2.17157 13.5 3 13.5C3.82843 13.5 4.5 12.8284 4.5 12Z" fill="#040708"/>
</svg>
