<svg width="256" height="256" viewBox="0 0 256 256" fill="none" xmlns="http://www.w3.org/2000/svg">
<path fill-rule="evenodd" clip-rule="evenodd" d="M84 16H72V28V150.422C64.9398 146.337 56.7429 144 48 144C21.4904 144 0 165.49 0 192C0 218.51 21.4904 240 48 240C74.5096 240 96 218.51 96 192V96H216V150.422C208.939 146.337 200.742 144 192 144C165.49 144 144 165.49 144 192C144 218.51 165.49 240 192 240C218.51 240 240 218.51 240 192V28V16H228H84ZM216 72V40H96V72H216ZM192 168C205.254 168 216 178.746 216 192C216 205.254 205.254 216 192 216C178.746 216 168 205.254 168 192C168 178.746 178.746 168 192 168ZM72 192C72 178.746 61.2549 168 48 168C34.7451 168 24 178.746 24 192C24 205.254 34.7451 216 48 216C61.2549 216 72 205.254 72 192Z" fill="#040708"/>
</svg>
