<svg width="16" height="16" viewBox="0 0 16 16" fill="none" xmlns="http://www.w3.org/2000/svg">
<path fill-rule="evenodd" clip-rule="evenodd" d="M12.9703 0.96967L15.4703 3.46967L16.0007 4L15.4703 4.53033L12.9703 7.03033L11.9097 5.96967L13.1293 4.75H11.3107L8.06066 8L7 9.06066L3.28033 12.7803L3.06066 13H2.75H0V11.5H2.43934L5.93934 8L2.43934 4.5H0V3H2.75H3.06066L3.28033 3.21967L7 6.93934L10.4697 3.46967L10.6893 3.25H11H13.1293L11.9097 2.03033L12.9703 0.96967ZM9.47487 9.41421L8.41421 10.4749L10.4697 12.5303L10.6893 12.75H11H13.1293L11.9097 13.9697L12.9703 15.0303L15.4703 12.5303L16.0007 12L15.4703 11.4697L12.9703 8.96967L11.9097 10.0303L13.1293 11.25H11.3107L9.47487 9.41421Z" fill="#040708"/>
</svg>
