<svg width="16" height="16" viewBox="0 0 16 16" fill="none" xmlns="http://www.w3.org/2000/svg">
<path fill-rule="evenodd" clip-rule="evenodd" d="M6 15L2 11H1.5H0V9.5V6.5V5H1.5H2L6 1H6.5H8V2.5V13.5V15H6.5H6ZM2 9.5H1.5V6.5H2H2.62132L3.06066 6.06066L6.5 2.62132V13.3787L3.06066 9.93934L2.62132 9.5H2ZM10 3.5C12.4853 3.5 14.5 5.51472 14.5 8C14.5 10.4853 12.4853 12.5 10 12.5V14C13.3137 14 16 11.3137 16 8C16 4.68629 13.3137 2 10 2V3.5ZM10 7C10.5523 7 11 7.44772 11 8C11 8.55228 10.5523 9 10 9V10.5C11.3807 10.5 12.5 9.38071 12.5 8C12.5 6.61929 11.3807 5.5 10 5.5V7Z" fill="#040708"/>
</svg>
