<svg width="16" height="16" viewBox="0 0 16 16" fill="none" xmlns="http://www.w3.org/2000/svg">
<path fill-rule="evenodd" clip-rule="evenodd" d="M11.8787 4L10 2.12132V5.87868L11.8787 4Z" fill="#FFBFE1" fill-opacity="0.8"/>
<path fill-rule="evenodd" clip-rule="evenodd" d="M4.12132 12L6 10.1213L6 13.8787L4.12132 12Z" fill="#FFBFE1" fill-opacity="0.8"/>
<path fill-rule="evenodd" clip-rule="evenodd" d="M10 8H8.5V6.5V4.50062L5.29049 3.60909C5.02988 3.5367 4.76066 3.5 4.49018 3.5C2.83875 3.5 1.5 4.83875 1.5 6.49018V9H0V6.49018C0 4.01032 2.01032 2 4.49018 2C4.89634 2 5.30061 2.05511 5.69195 2.16381L8.5 2.94382V1.5V0H10L12.9393 2.93934L14 4L12.9393 5.06066L10 8ZM11.8787 4L10 2.12132V5.87868L11.8787 4ZM6 16H7.5V14.5V13.0562L10.308 13.8362C10.6994 13.9449 11.1037 14 11.5098 14C13.9897 14 16 11.9897 16 9.50982V7H14.5V9.50982C14.5 11.1613 13.1613 12.5 11.5098 12.5C11.2393 12.5 10.9701 12.4633 10.7095 12.3909L7.5 11.4994V9.5V8H6L3.06066 10.9393L2 12L3.06066 13.0607L6 16ZM4.12132 12L6 10.1213L6 13.8787L4.12132 12Z" fill="#040708"/>
</svg>
