<svg width="16" height="16" viewBox="0 0 16 16" fill="none" xmlns="http://www.w3.org/2000/svg">
<path fill-rule="evenodd" clip-rule="evenodd" d="M3.91645 4.20486L10.6562 12.5H1.5V4.5H3.62132L3.91645 4.20486Z" fill="#FFBFE1" fill-opacity="0.8"/>
<path fill-rule="evenodd" clip-rule="evenodd" d="M2.5 0L15.5 16H13.5L11.875 14H1.5H0V12.5V4.5V3H1.5H2.9375L0.5 0H2.5ZM3.91645 4.20487L10.6562 12.5H1.5V4.5H3H3.62132L3.91645 4.20487ZM5.88944 1L7.10819 2.5H10.3787L11.9393 4.06066L12.3787 4.5H13H14.5V11.5976L16 13.4438V12.5V4.5V3H14.5H13L11 1H5.88944Z" fill="#040708"/>
</svg>
