<svg width="256" height="256" viewBox="0 0 256 256" fill="none" xmlns="http://www.w3.org/2000/svg">
<g clip-path="url(#clip0_3368_3408)">
<path fill-rule="evenodd" clip-rule="evenodd" d="M128 232C185.438 232 232 185.438 232 128C232 70.5624 185.438 24 128 24C70.5624 24 24 70.5624 24 128C24 185.438 70.5624 232 128 232ZM104 80H120L176 128L120 176H104V80Z" fill="#FFBFE1" fill-opacity="0.8"/>
<path fill-rule="evenodd" clip-rule="evenodd" d="M232 128C232 185.438 185.438 232 128 232C70.5624 232 24 185.438 24 128C24 70.5624 70.5624 24 128 24C185.438 24 232 70.5624 232 128ZM256 128C256 198.693 198.693 256 128 256C57.3075 256 0 198.693 0 128C0 57.3075 57.3075 0 128 0C198.693 0 256 57.3075 256 128ZM120 80H104V176H120L176 128L120 80Z" fill="#040708"/>
</g>
<defs>
<clipPath id="clip0_3368_3408">
<rect width="256" height="256" fill="white"/>
</clipPath>
</defs>
</svg>
