<svg width="256" height="256" viewBox="0 0 256 256" fill="none" xmlns="http://www.w3.org/2000/svg">
<g clip-path="url(#clip0_3368_3414)">
<path fill-rule="evenodd" clip-rule="evenodd" d="M232 128C232 152.395 223.6 174.829 209.536 192.565L169.354 152.384C173.578 145.237 176 136.902 176 128C176 105.634 160.702 86.8406 140 81.5122V24.6848C191.786 30.6344 232 74.6208 232 128ZM86.6459 103.616C82.4232 110.763 80 119.098 80 128C80 129.398 80.0597 130.782 80.1768 132.149C81.9333 152.663 96.5912 169.493 116 174.488V231.315C64.2147 225.365 24 181.379 24 128C24 103.605 32.3994 81.1717 46.4638 63.4344L86.6459 103.616Z" fill="#FFBFE1" fill-opacity="0.8"/>
<path fill-rule="evenodd" clip-rule="evenodd" d="M192.566 209.536C177.779 221.261 159.729 229.048 140 231.315V174.488C144.404 173.354 148.564 171.611 152.384 169.354L192.566 209.536ZM209.536 192.565C223.6 174.829 232 152.395 232 128C232 74.621 191.786 30.6344 140 24.6848V81.5122C160.702 86.8408 176 105.634 176 128C176 136.902 173.578 145.237 169.354 152.384L209.536 192.565ZM24 128C24 181.379 64.2147 225.365 116 231.315V174.488C95.2973 169.16 80 150.366 80 128C80 119.098 82.4232 110.763 86.6459 103.616L46.4638 63.4344C32.3994 81.1717 24 103.605 24 128ZM63.4344 46.4638L103.616 86.6458C107.436 84.3888 111.596 82.6458 116 81.5122V24.6848C96.2707 26.9515 78.2208 34.7392 63.4344 46.4638ZM256 128C256 198.693 198.693 256 128 256C57.3075 256 0 198.693 0 128C0 57.3075 57.3075 0 128 0C198.693 0 256 57.3075 256 128ZM152 128C152 141.255 141.255 152 128 152C114.745 152 104 141.255 104 128C104 114.745 114.745 104 128 104C141.255 104 152 114.745 152 128Z" fill="#040708"/>
</g>
<defs>
<clipPath id="clip0_3368_3414">
<rect width="256" height="256" fill="white"/>
</clipPath>
</defs>
</svg>
