<svg width="16" height="16" viewBox="0 0 16 16" fill="none" xmlns="http://www.w3.org/2000/svg">
<path fill-rule="evenodd" clip-rule="evenodd" d="M14.5 8C14.5 9.52469 13.975 10.9268 13.096 12.0353L10.5846 9.52397C10.8486 9.07734 11 8.55635 11 8C11 6.60212 10.0439 5.42754 8.75 5.09451V1.5428C11.9866 1.91465 14.5 4.6638 14.5 8ZM5.41537 6.47602C5.15145 6.92266 5 7.44364 5 8C5 8.08737 5.00373 8.17386 5.01105 8.25933C5.12083 9.54141 6.03695 10.5933 7.25 10.9055V14.4572C4.01342 14.0853 1.5 11.3362 1.5 8C1.5 6.47531 2.02496 5.07323 2.90399 3.96465L5.41537 6.47602Z" fill="#FFBFE1" fill-opacity="0.8"/>
<path fill-rule="evenodd" clip-rule="evenodd" d="M12.0354 13.096C11.1112 13.8288 9.98308 14.3155 8.75 14.4572V10.9055C9.02527 10.8346 9.28524 10.7257 9.52398 10.5846L12.0354 13.096ZM13.096 12.0353C13.975 10.9268 14.5 9.52469 14.5 8C14.5 4.66381 11.9866 1.91465 8.75 1.5428V5.09451C10.0439 5.42755 11 6.60212 11 8C11 8.55635 10.8486 9.07734 10.5846 9.52397L13.096 12.0353ZM1.5 8C1.5 11.3362 4.01342 14.0853 7.25 14.4572V10.9055C5.95608 10.5725 5 9.39788 5 8C5 7.44364 5.15145 6.92266 5.41537 6.47602L2.90399 3.96465C2.02496 5.07323 1.5 6.47531 1.5 8ZM3.96465 2.90399L6.47603 5.41536C6.71476 5.2743 6.97474 5.16536 7.25 5.09451V1.5428C6.01692 1.68447 4.8888 2.1712 3.96465 2.90399ZM16 8C16 12.4183 12.4183 16 8 16C3.58172 16 0 12.4183 0 8C0 3.58172 3.58172 0 8 0C12.4183 0 16 3.58172 16 8ZM9.5 8C9.5 8.82843 8.82843 9.5 8 9.5C7.17157 9.5 6.5 8.82843 6.5 8C6.5 7.17157 7.17157 6.5 8 6.5C8.82843 6.5 9.5 7.17157 9.5 8Z" fill="#040708"/>
</svg>
