<svg width="256" height="256" viewBox="0 0 256 256" fill="none" xmlns="http://www.w3.org/2000/svg">
<path fill-rule="evenodd" clip-rule="evenodd" d="M80 152H40V192C40 205.254 50.7451 216 64 216H80V152ZM176 152H216V192C216 205.254 205.254 216 192 216H176V152Z" fill="#FFBFE1" fill-opacity="0.8"/>
<path fill-rule="evenodd" clip-rule="evenodd" d="M128 24C79.3989 24 40 63.3989 40 112V128H80H104V152V216V240H80H64C37.4904 240 16 218.51 16 192V152V128V112C16 50.1442 66.1442 0 128 0C189.856 0 240 50.1442 240 112V128V152V192C240 218.51 218.51 240 192 240H176H152V216V152V128H176H216V112C216 63.3989 176.602 24 128 24ZM80 152H40V192C40 205.254 50.7451 216 64 216H80V152ZM176 152H216V192C216 205.254 205.254 216 192 216H176V152Z" fill="#040708"/>
</svg>
