<svg width="256" height="256" viewBox="0 0 256 256" fill="none" xmlns="http://www.w3.org/2000/svg">
<path fill-rule="evenodd" clip-rule="evenodd" d="M216 216H40.9706L96 160.971L128 192.971L216 104.97V216Z" fill="#FFBFE1" fill-opacity="0.8"/>
<path fill-rule="evenodd" clip-rule="evenodd" d="M216 40H40V183.029L87.5147 135.515L96 127.029L104.485 135.515L128 159.029L216 71.0294V40ZM216 216H40.9706L96 160.971L119.515 184.485L128 192.971L136.485 184.485L216 104.971V216ZM40 16H16V40V216V240H40H216H240V216V40V16H216H40ZM92 104C103.046 104 112 95.0458 112 84C112 72.9542 103.046 64 92 64C80.9542 64 72 72.9542 72 84C72 95.0458 80.9542 104 92 104Z" fill="#040708"/>
</svg>
