<svg width="16" height="16" viewBox="0 0 16 16" fill="none" xmlns="http://www.w3.org/2000/svg">
<path fill-rule="evenodd" clip-rule="evenodd" d="M13.5 13.5H2.56066L6 10.0607L8 12.0607L13.5 6.56065V13.5Z" fill="#FFBFE1" fill-opacity="0.8"/>
<path fill-rule="evenodd" clip-rule="evenodd" d="M13.5 2.5H2.5V11.4393L5.46967 8.46967L6 7.93934L6.53033 8.46967L8 9.93934L13.5 4.43934V2.5ZM13.5 13.5H2.56066L6 10.0607L7.46967 11.5303L8 12.0607L8.53033 11.5303L13.5 6.56066V13.5ZM2.5 1H1V2.5V13.5V15H2.5H13.5H15V13.5V2.5V1H13.5H2.5ZM5.75 6.5C6.44036 6.5 7 5.94036 7 5.25C7 4.55964 6.44036 4 5.75 4C5.05964 4 4.5 4.55964 4.5 5.25C4.5 5.94036 5.05964 6.5 5.75 6.5Z" fill="#040708"/>
</svg>
