<svg width="256" height="256" viewBox="0 0 256 256" fill="none" xmlns="http://www.w3.org/2000/svg">
<path fill-rule="evenodd" clip-rule="evenodd" d="M160 112V56C160 38.3269 145.673 24 128 24C110.327 24 96 38.3269 96 56V112C96 129.673 110.327 144 128 144C145.673 144 160 129.673 160 112Z" fill="#FFBFE1" fill-opacity="0.8"/>
<path fill-rule="evenodd" clip-rule="evenodd" d="M160 112V56C160 38.3269 145.673 24 128 24C110.327 24 96 38.3269 96 56V112C96 129.673 110.327 144 128 144C145.673 144 160 129.673 160 112ZM128 0C97.072 0 72 25.072 72 56V112C72 142.928 97.072 168 128 168C158.928 168 184 142.928 184 112V56C184 25.072 158.928 0 128 0ZM16 116V96H40V116C40 162.392 77.6082 200 124 200H132C178.392 200 216 162.392 216 116V96H240V116C240 172.955 195.91 219.614 140 223.709V256H116V223.709C60.089 219.614 16 172.955 16 116Z" fill="#040708"/>
</svg>
