<svg width="256" height="256" viewBox="0 0 256 256" fill="none" xmlns="http://www.w3.org/2000/svg">
<path fill-rule="evenodd" clip-rule="evenodd" d="M33.9411 128L104 57.9414V198.059L33.9411 128ZM145.941 128L216 57.9414V198.059L145.941 128Z" fill="#FFBFE1" fill-opacity="0.8"/>
<path fill-rule="evenodd" clip-rule="evenodd" d="M128 224V200V144L128.971 144.971L208 224H216H240V200V56V32H216H208L128.971 111.029L128 112V56V32H104H96L16.9706 111.029L0 128L16.9706 144.971L96 224H104H128ZM33.9411 128L104 57.9411V198.059L33.9411 128ZM145.941 128L216 57.9411V198.059L145.941 128Z" fill="#040708"/>
</svg>
