<svg width="16" height="16" viewBox="0 0 16 16" fill="none" xmlns="http://www.w3.org/2000/svg">
<path fill-rule="evenodd" clip-rule="evenodd" d="M2.12132 8.00002L6.5 3.62134L6.5 12.3787L2.12132 8.00002ZM9.12132 8.00002L13.5 3.62134L13.5 12.3787L9.12132 8.00002Z" fill="#FFBFE1" fill-opacity="0.8"/>
<path fill-rule="evenodd" clip-rule="evenodd" d="M8 14V12.5L8 9L8.06066 9.06066L13 14H13.5H15L15 12.5L15 3.5V2H13.5H13L8.06066 6.93934L8 7L8 3.5V2H6.5H6L1.06066 6.93934L0 8L1.06066 9.06066L6 14H6.5H8ZM2.12132 8L6.5 3.62132L6.5 12.3787L2.12132 8ZM9.12132 8L13.5 3.62132L13.5 12.3787L9.12132 8Z" fill="#040708"/>
</svg>
