<svg width="256" height="256" viewBox="0 0 256 256" fill="none" xmlns="http://www.w3.org/2000/svg">
<g clip-path="url(#clip0_3368_3445)">
<path fill-rule="evenodd" clip-rule="evenodd" d="M207.525 15.5147L247.525 55.5147L256.011 64L247.525 72.4853L207.525 112.485L190.555 95.5147L210.069 76H180.971L128.971 128L112 144.971L52.4853 204.485L48.9706 208H44H0V184H39.0294L95.0294 128L39.0294 72H0V48H44H48.9706L52.4853 51.5147L112 111.029L167.515 55.5147L171.029 52H176H210.069L190.555 32.4853L207.525 15.5147ZM151.598 150.627L134.627 167.598L167.515 200.485L171.029 204H176H210.069L190.555 223.515L207.525 240.485L247.525 200.485L256.011 192L247.525 183.515L207.525 143.515L190.555 160.485L210.069 180H180.971L151.598 150.627Z" fill="#040708"/>
</g>
<defs>
<clipPath id="clip0_3368_3445">
<rect width="256" height="256" fill="white"/>
</clipPath>
</defs>
</svg>
