<svg width="16" height="16" viewBox="0 0 16 16" fill="none" xmlns="http://www.w3.org/2000/svg">
<path fill-rule="evenodd" clip-rule="evenodd" d="M4.36473 4.75659L2.62132 6.5H1.5V9.5H2.62132L6.5 13.3787V7.38462L4.36473 4.75659Z" fill="#FFBFE1" fill-opacity="0.8"/>
<path fill-rule="evenodd" clip-rule="evenodd" d="M0.5 0H2.5L15.5 16H13.5L8 9.23077V13.5V15H6.5H6L2 11H1.5H0V9.5V6.5V5H1.5H2L3.41379 3.58621L0.5 0ZM4.36473 4.75659L3.06066 6.06066L2.62132 6.5H2H1.5V9.5H2H2.62132L3.06066 9.93934L6.5 13.3787V7.38462L4.36473 4.75659ZM13.6808 10.5894L14.654 11.7872C15.4955 10.7543 16 9.43608 16 8C16 4.68629 13.3137 2 10 2V3.5C12.4853 3.5 14.5 5.51472 14.5 8C14.5 8.96395 14.1969 9.85712 13.6808 10.5894Z" fill="#040708"/>
</svg>
