<svg width="256" height="256" viewBox="0 0 256 256" fill="none" xmlns="http://www.w3.org/2000/svg">
<g clip-path="url(#clip0_3368_3456)">
<path fill-rule="evenodd" clip-rule="evenodd" d="M69.8357 76.1054L41.9411 104H24V152H41.9411L104 214.059V118.154L69.8357 76.1054Z" fill="#FFBFE1" fill-opacity="0.8"/>
<path fill-rule="evenodd" clip-rule="evenodd" d="M8 0H40L248 256H216L128 147.692V216V240H104H96L32 176H24H0V152V104V80H24H32L54.6206 57.3794L8 0ZM69.8357 76.1054L48.9706 96.9706L41.9411 104H32H24V152H32H41.9411L48.9706 159.029L104 214.059V118.154L69.8357 76.1054ZM218.893 169.43L234.464 188.595C247.928 172.069 256 150.977 256 128C256 74.9806 213.019 32 160 32V56C199.765 56 232 88.2355 232 128C232 143.423 227.15 157.714 218.893 169.43Z" fill="#040708"/>
</g>
<defs>
<clipPath id="clip0_3368_3456">
<rect width="256" height="256" fill="white"/>
</clipPath>
</defs>
</svg>
