<svg width="256" height="256" viewBox="0 0 256 256" fill="none" xmlns="http://www.w3.org/2000/svg">
<path fill-rule="evenodd" clip-rule="evenodd" d="M24 152V104H41.9411L104 41.9411V214.059L41.9411 152H24Z" fill="#FFBFE1" fill-opacity="0.8"/>
<path fill-rule="evenodd" clip-rule="evenodd" d="M96 240L32 176H24H0V152V104V80H24H32L96 16H104H128V40V216V240H104H96ZM32 152H24V104H32H41.9411L48.9706 96.9706L104 41.9411V214.059L48.9706 159.029L41.9411 152H32ZM160 56C199.765 56 232 88.2355 232 128C232 167.765 199.765 200 160 200V224C213.019 224 256 181.019 256 128C256 74.9806 213.019 32 160 32V56ZM160 112C168.837 112 176 119.164 176 128C176 136.836 168.837 144 160 144V168C182.091 168 200 150.091 200 128C200 105.909 182.091 88 160 88V112Z" fill="#040708"/>
</svg>
