<svg width="256" height="256" viewBox="0 0 256 256" fill="none" xmlns="http://www.w3.org/2000/svg">
<g clip-path="url(#clip0_3368_3468)">
<path fill-rule="evenodd" clip-rule="evenodd" d="M160 128H144V77.1168L82.5165 64.8202C79.7893 64.2747 77.0149 64 74.2338 64C50.9086 64 32 82.9086 32 106.234V144H0V106.234C0 65.2355 33.2355 32 74.2338 32C79.1222 32 83.9987 32.4829 88.7922 33.4416L144 44.4832V0H160L224 64L160 128ZM256 112V149.766C256 190.765 222.765 224 181.766 224C176.878 224 172.002 223.517 167.208 222.558L112 211.517V256H96L32 192L96 128H112V178.883L173.483 191.179C176.211 191.725 178.986 192 181.766 192C205.091 192 224 173.091 224 149.766V112H256Z" fill="#040708"/>
</g>
<defs>
<clipPath id="clip0_3368_3468">
<rect width="256" height="256" fill="white"/>
</clipPath>
</defs>
</svg>
