<svg width="16" height="16" viewBox="0 0 16 16" fill="none" xmlns="http://www.w3.org/2000/svg">
<path fill-rule="evenodd" clip-rule="evenodd" d="M10 8H9V4.8198L5.15728 4.05126C4.98683 4.01717 4.81343 4 4.63961 4C3.18179 4 2 5.18179 2 6.63961V9H0V6.63961C0 4.07722 2.07722 2 4.63961 2C4.94514 2 5.24992 2.03018 5.54951 2.0901L9 2.7802V0H10L14 4L10 8ZM16 7V9.36039C16 11.9228 13.9228 14 11.3604 14C11.0549 14 10.7501 13.9698 10.4505 13.9099L7 13.2198V16H6L2 12L6 8H7V11.1802L10.8427 11.9487C11.0132 11.9828 11.1866 12 11.3604 12C12.8182 12 14 10.8182 14 9.36039V7H16Z" fill="#040708"/>
</svg>
