<svg width="16" height="16" viewBox="0 0 16 16" fill="none" xmlns="http://www.w3.org/2000/svg">
<path fill-rule="evenodd" clip-rule="evenodd" d="M8 4V0C12.4183 0 16 3.58172 16 8C16 10.7765 14.5856 13.2226 12.4381 14.6571L10.219 11.3286C9.58407 11.7527 8.82091 12 8 12V16C3.58172 16 0 12.4183 0 8C0 5.22355 1.41438 2.77744 3.56193 1.34289L5.78096 4.67145C6.41593 4.24729 7.17909 4 8 4ZM8 6C7.58954 6 7.20797 6.12365 6.89048 6.33572C6.35359 6.69436 6 7.30589 6 8C6 9.10457 6.89543 10 8 10C8.41046 10 8.79204 9.87635 9.10952 9.66428C9.64641 9.30564 10 8.69411 10 8C10 6.89543 9.10457 6 8 6Z" fill="#040708"/>
</svg>
