<svg width="256" height="256" viewBox="0 0 256 256" fill="none" xmlns="http://www.w3.org/2000/svg">
<g clip-path="url(#clip0_3368_3480)">
<path fill-rule="evenodd" clip-rule="evenodd" d="M128 64V0C198.693 0 256 57.3075 256 128C256 172.424 233.37 211.562 199.01 234.514L163.504 181.258C153.345 188.043 141.135 192 128 192V256C57.3075 256 0 198.693 0 128C0 83.5768 22.6301 44.439 56.9909 21.4862L92.4954 74.7432C102.655 67.9566 114.865 64 128 64ZM128 96C121.433 96 115.328 97.9784 110.248 101.372C101.657 107.11 96 116.894 96 128C96 145.673 110.327 160 128 160C134.567 160 140.673 158.022 145.752 154.628C154.343 148.89 160 139.106 160 128C160 110.327 145.673 96 128 96Z" fill="#040708"/>
</g>
<defs>
<clipPath id="clip0_3368_3480">
<rect width="256" height="256" fill="white"/>
</clipPath>
</defs>
</svg>
