<svg width="256" height="256" viewBox="0 0 256 256" fill="none" xmlns="http://www.w3.org/2000/svg">
<g clip-path="url(#clip0_3368_3488)">
<path fill-rule="evenodd" clip-rule="evenodd" d="M256 256H208L173.997 214.149C169.482 216.186 164.808 217.931 160 219.362V256H96V219.362C49.7362 205.594 16 162.736 16 112V96H48V112C48 156.183 83.8173 192 128 192C136.661 192 145.001 190.624 152.813 188.077L129.968 159.96C129.315 159.987 128.659 160 128 160C101.49 160 80 138.51 80 112V98.4616L0 0H48L256 256ZM176 98.4616L102.139 7.55539C109.603 2.77294 118.477 0 128 0C154.51 0 176 21.4904 176 48V98.4616ZM204.922 134.056L228.01 162.474C235.678 147.306 240 130.158 240 112V96H208V112C208 119.65 206.926 127.05 204.922 134.056Z" fill="#040708"/>
</g>
<defs>
<clipPath id="clip0_3368_3488">
<rect width="256" height="256" fill="white"/>
</clipPath>
</defs>
</svg>
