<svg width="256" height="256" viewBox="0 0 256 256" fill="none" xmlns="http://www.w3.org/2000/svg">
<path fill-rule="evenodd" clip-rule="evenodd" d="M208 16H192V48H176H169.373L164.686 52.6862L112 105.373L59.3138 52.6862L54.6274 48H48H0V80H41.3726L89.3726 128L41.3726 176H0V208H48H54.6274L59.3138 203.314L112 150.627L134.627 128L182.627 80H192V112H208L256 64L208 16ZM192 144H208L256 192L208 240H192V208H176H169.373L164.686 203.314L134.627 173.254L157.255 150.627L182.627 176H192V144Z" fill="#040708"/>
</svg>
